<svg xmlns="http://www.w3.org/2000/svg" width="25.5" height="25.5" viewBox="0 0 25.5 25.5">
  <g id="shopping-cart" transform="translate(0.75 0.75)">
    <g id="shopping-cart-2" data-name="shopping-cart">
      <path id="Path_17" data-name="Path 17" d="M7.2,19.2a2.4,2.4,0,1,0,2.4,2.4A2.407,2.407,0,0,0,7.2,19.2ZM0,0V2.4H2.4l4.32,9.12L5.04,14.4a4.264,4.264,0,0,0-.24,1.2A2.407,2.407,0,0,0,7.2,18H21.6V15.6H7.68a.258.258,0,0,1-.24-.24v-.12L8.52,13.2H17.4A2.188,2.188,0,0,0,19.44,12l4.32-7.8A.661.661,0,0,0,24,3.6a1.134,1.134,0,0,0-1.2-1.2H5.04L3.96,0ZM19.2,19.2a2.4,2.4,0,1,0,2.4,2.4A2.407,2.407,0,0,0,19.2,19.2Z" fill="none" stroke="#fff" stroke-width="1.5"/>
    </g>
  </g>
</svg>
