<svg xmlns="http://www.w3.org/2000/svg" width="32" height="32" viewBox="0 0 32 32">
  <path id="choose-done-line-fa541b175e116bad169abc005a6889e3" d="M80,96a16,16,0,0,1,0-32,15.853,15.853,0,0,1,9.8,3.35.761.761,0,1,1-.933,1.2A14.344,14.344,0,0,0,80,65.524a14.46,14.46,0,1,0,13.3,8.754.762.762,0,1,1,1.4-.6A16.01,16.01,0,0,1,80,96ZM78.011,85.754a.76.76,0,0,1-.539-.223l-6.52-6.52a.762.762,0,0,1,1.077-1.077l6.52,6.52a.761.761,0,0,1-.539,1.3Zm0,0a.761.761,0,0,1-.539-1.3L87.809,74.075a.762.762,0,1,1,1.079,1.075L78.55,85.53a.759.759,0,0,1-.539.224Zm14.072-15.1-1.143,0a1.143,1.143,0,1,0,1.143-1.143A1.143,1.143,0,0,0,90.94,70.654Z" transform="translate(-64 -64)" fill="#37c65d"/>
</svg>
