<svg xmlns="http://www.w3.org/2000/svg" width="15.398" height="18" viewBox="0 0 15.398 18">
  <path id="Icon_payment-invoice-sign-alt-o" data-name="Icon payment-invoice-sign-alt-o" d="M26.128,20.182a2.54,2.54,0,0,1,.492.738,2.105,2.105,0,0,1,.176.879V33.4a.842.842,0,0,1-.281.668.911.911,0,0,1-.668.282h-13.5a.909.909,0,0,1-.668-.281A.84.84,0,0,1,11.4,33.4V17.3a.841.841,0,0,1,.281-.668.911.911,0,0,1,.668-.281h9a2.092,2.092,0,0,1,.879.211,2.646,2.646,0,0,1,.773.457Zm-.6,12.867V22.783H21.347a.909.909,0,0,1-.668-.281.882.882,0,0,1-.281-.7V17.65H12.663v15.4H25.53ZM15.23,24.4a.339.339,0,0,1,.105-.246.3.3,0,0,1,.211-.105h7.1a.3.3,0,0,1,.211.105.338.338,0,0,1,.105.246v.633q0,.177-.105.211a.3.3,0,0,1-.211.105h-7.1a.3.3,0,0,1-.211-.105q-.105-.034-.105-.211V24.4Zm7.418,2.25a.288.288,0,0,1,.211.07.338.338,0,0,1,.105.246V27.6a.338.338,0,0,1-.105.246.535.535,0,0,1-.211.07h-7.1a.53.53,0,0,1-.211-.07.337.337,0,0,1-.105-.246v-.633a.339.339,0,0,1,.105-.246.286.286,0,0,1,.211-.07Zm0,2.566a.541.541,0,0,1,.211.07.338.338,0,0,1,.105.246v.633a.338.338,0,0,1-.105.246.536.536,0,0,1-.211.07h-7.1a.53.53,0,0,1-.211-.07.338.338,0,0,1-.105-.246v-.633a.339.339,0,0,1,.105-.246.536.536,0,0,1,.211-.07Zm-.984-11.5v3.762h3.8a.645.645,0,0,0-.246-.387l-3.129-3.164a1.152,1.152,0,0,0-.422-.211Z" transform="translate(-11.398 -16.35)" fill="#222"/>
</svg>
