<svg xmlns="http://www.w3.org/2000/svg" width="39" height="39" viewBox="0 0 39 39">
  <g id="Group_68989"  transform="translate(-1337 -629)">
    <g id="Ellipse_27" transform="translate(1337 629)" fill="#fff" stroke="" stroke-width="1">
      <circle cx="19.5" cy="19.5" r="19.5" stroke="#cecece"/>
      <circle cx="19.5" cy="19.5" r="19" fill=""/>
    </g>
    <path id="heart" d="M9.458,16.952a1.1,1.1,0,0,1-.731-.277c-.764-.673-1.5-1.306-2.151-1.863l0,0a40.122,40.122,0,0,1-4.7-4.44A7.12,7.12,0,0,1,0,5.726,5.98,5.98,0,0,1,1.5,1.659,5.069,5.069,0,0,1,5.284,0,4.736,4.736,0,0,1,8.256,1.033,6.106,6.106,0,0,1,9.458,2.3a6.106,6.106,0,0,1,1.2-1.264A4.736,4.736,0,0,1,13.631,0a5.07,5.07,0,0,1,3.784,1.659,5.98,5.98,0,0,1,1.5,4.067,7.119,7.119,0,0,1-1.876,4.642,40.118,40.118,0,0,1-4.7,4.44c-.651.559-1.389,1.192-2.155,1.867a1.105,1.105,0,0,1-.731.276ZM5.284,1.116a3.977,3.977,0,0,0-2.969,1.3A4.865,4.865,0,0,0,1.108,5.726a5.99,5.99,0,0,0,1.621,3.93,39.482,39.482,0,0,0,4.562,4.3l0,0c.652.56,1.392,1.2,2.162,1.873.774-.679,1.515-1.315,2.169-1.876a39.492,39.492,0,0,0,4.561-4.3,5.991,5.991,0,0,0,1.621-3.93A4.865,4.865,0,0,0,16.6,2.416a3.977,3.977,0,0,0-2.969-1.3,3.658,3.658,0,0,0-2.294.8,5.406,5.406,0,0,0-1.279,1.49.7.7,0,0,1-1.2,0,5.4,5.4,0,0,0-1.279-1.49,3.658,3.658,0,0,0-2.294-.8Zm0,0" transform="translate(1347.035 641.721)" fill="#cecece"/>
  </g>
</svg>
