<svg xmlns="http://www.w3.org/2000/svg" width="20" height="24" viewBox="0 0 20 24">
  <g id="user" transform="translate(0 0)">
    <path id="Path_63" data-name="Path 63" d="M92.84,11.453a5.661,5.661,0,0,0,4.107-1.678,5.5,5.5,0,0,0,1.7-4.049,5.5,5.5,0,0,0-1.7-4.049,5.866,5.866,0,0,0-8.213,0,5.5,5.5,0,0,0-1.7,4.049,5.5,5.5,0,0,0,1.7,4.049A5.663,5.663,0,0,0,92.84,11.453Zm-3.107-8.79a4.438,4.438,0,0,1,6.215,0,4.111,4.111,0,0,1,1.288,3.064A4.111,4.111,0,0,1,95.948,8.79a4.438,4.438,0,0,1-6.215,0,4.11,4.11,0,0,1-1.288-3.064,4.111,4.111,0,0,1,1.288-3.064Zm0,0" transform="translate(-82.99 0)" />
    <path id="Path_64" data-name="Path 64" d="M19.951,254.114a14.035,14.035,0,0,0-.194-1.5,11.756,11.756,0,0,0-.373-1.51,7.43,7.43,0,0,0-.626-1.409,5.316,5.316,0,0,0-.944-1.22,4.167,4.167,0,0,0-1.356-.845,4.721,4.721,0,0,0-1.731-.311,1.765,1.765,0,0,0-.938.395c-.281.182-.61.392-.978.625a5.624,5.624,0,0,1-1.265.553,4.95,4.95,0,0,1-3.094,0,5.607,5.607,0,0,1-1.264-.553c-.364-.231-.693-.441-.978-.625a1.763,1.763,0,0,0-.938-.395,4.715,4.715,0,0,0-1.731.311,4.164,4.164,0,0,0-1.356.845,5.318,5.318,0,0,0-.944,1.22A7.446,7.446,0,0,0,.614,251.1a11.786,11.786,0,0,0-.372,1.51,13.94,13.94,0,0,0-.194,1.5c-.032.454-.048.927-.048,1.4a3.931,3.931,0,0,0,1.182,2.987,4.276,4.276,0,0,0,3.046,1.1H15.771a4.276,4.276,0,0,0,3.046-1.1A3.93,3.93,0,0,0,20,255.519c0-.479-.016-.952-.048-1.4Zm-2.1,3.382a2.879,2.879,0,0,1-2.078.718H4.229a2.879,2.879,0,0,1-2.078-.718,2.567,2.567,0,0,1-.746-1.978c0-.446.015-.885.044-1.308a12.573,12.573,0,0,1,.176-1.353,10.393,10.393,0,0,1,.328-1.332,6.061,6.061,0,0,1,.51-1.146,3.94,3.94,0,0,1,.694-.9,2.764,2.764,0,0,1,.9-.556,3.255,3.255,0,0,1,1.106-.212c.049.026.137.075.279.167.289.187.622.4.99.633a6.988,6.988,0,0,0,1.588.7,6.365,6.365,0,0,0,3.958,0,7,7,0,0,0,1.589-.7c.377-.239.7-.446.989-.632.142-.092.23-.141.279-.167a3.258,3.258,0,0,1,1.107.212,2.769,2.769,0,0,1,.9.556,3.931,3.931,0,0,1,.694.9,6.041,6.041,0,0,1,.51,1.145,10.369,10.369,0,0,1,.328,1.332,12.678,12.678,0,0,1,.176,1.353h0c.03.421.045.86.045,1.307a2.566,2.566,0,0,1-.746,1.977Zm0,0" transform="translate(0 -235.608)" />
  </g>
</svg>
