<svg id="trash" xmlns="http://www.w3.org/2000/svg" width="9.295" height="11.441" viewBox="0 0 9.295 11.441">
  <path id="Path_147" data-name="Path 147" d="M56.4,1.43H54.435V1.073A1.073,1.073,0,0,0,53.363,0h-1.43A1.073,1.073,0,0,0,50.86,1.073V1.43H48.894A.894.894,0,0,0,48,2.324v.715a.358.358,0,0,0,.358.358h8.58a.358.358,0,0,0,.358-.358V2.324A.894.894,0,0,0,56.4,1.43Zm-4.826-.358a.358.358,0,0,1,.358-.358h1.43a.358.358,0,0,1,.358.358V1.43H51.575Z" transform="translate(-48)" fill="#c9c9c9"/>
  <path id="Path_148" data-name="Path 148" d="M73.476,184a.112.112,0,0,0-.112.117l.295,6.191a1.071,1.071,0,0,0,1.071,1.022H80.16a1.071,1.071,0,0,0,1.071-1.022l.295-6.191a.112.112,0,0,0-.112-.117Zm5.4.894a.358.358,0,1,1,.715,0v4.648a.358.358,0,0,1-.715,0Zm-1.788,0a.358.358,0,1,1,.715,0v4.648a.358.358,0,0,1-.715,0Zm-1.788,0a.358.358,0,1,1,.715,0v4.648a.358.358,0,1,1-.715,0Z" transform="translate(-72.797 -179.888)" fill="#c9c9c9"/>
</svg>
